<svg fill='white' height="512" viewBox="0 0 128 128" width="512" xmlns="http://www.w3.org/2000/svg"><g><path d="m126.25 20.75h-124.5a1.75 1.75 0 0 0 -1.75 1.75v82.994a1.75 1.75 0 0 0 1.75 1.75h124.5a1.749 1.749 0 0 0 1.75-1.75v-82.994a1.749 1.749 0 0 0 -1.75-1.75zm-122.75 3.5h121v66.875h-121zm121 79.494h-121v-9.119h121z"/><path d="m48.625 57.688a20.313 20.313 0 1 0 -35.773 13.142 1.808 1.808 0 0 0 .209.229 20.227 20.227 0 0 0 30.5 0 1.808 1.808 0 0 0 .209-.229 20.211 20.211 0 0 0 4.855-13.142zm-20.313-16.813a16.779 16.779 0 0 1 14.237 25.713 7.7 7.7 0 0 0 -5.893-2.744h-16.687a7.7 7.7 0 0 0 -5.894 2.744 16.781 16.781 0 0 1 14.237-25.713zm0 33.625a16.758 16.758 0 0 1 -12-5.056 4.221 4.221 0 0 1 3.654-2.1h16.69a4.221 4.221 0 0 1 3.654 2.1 16.758 16.758 0 0 1 -11.998 5.056z"/><path d="m28.312 60.592a6.773 6.773 0 0 0 6.766-6.766v-1.026a6.766 6.766 0 1 0 -13.531 0v1.031a6.773 6.773 0 0 0 6.765 6.761zm-3.265-7.8a3.266 3.266 0 1 1 6.531 0v1.031a3.266 3.266 0 1 1 -6.531 0z"/><path d="m118.25 35.875h-53.188a1.75 1.75 0 0 0 -1.75 1.75v6.554a1.75 1.75 0 0 0 1.75 1.75h53.188a1.749 1.749 0 0 0 1.75-1.75v-6.554a1.749 1.749 0 0 0 -1.75-1.75zm-1.75 6.554h-49.688v-3.054h49.688z"/><path d="m118.25 49.614h-53.188a1.75 1.75 0 0 0 -1.75 1.75v6.554a1.75 1.75 0 0 0 1.75 1.75h53.188a1.749 1.749 0 0 0 1.75-1.75v-6.554a1.749 1.749 0 0 0 -1.75-1.75zm-1.75 6.554h-49.688v-3.054h49.688z"/><path d="m118.25 69.446h-29.75a1.749 1.749 0 0 0 -1.75 1.75v6.554a1.749 1.749 0 0 0 1.75 1.75h29.75a1.749 1.749 0 0 0 1.75-1.75v-6.55a1.749 1.749 0 0 0 -1.75-1.754zm-1.75 6.554h-26.25v-3.054h26.25z"/></g></svg>