<?xml version="1.0"?>
<svg xmlns="http://www.w3.org/2000/svg" id="Outline" viewBox="0 0 512 512" width="512" height="512"><path d="M40,456H471.992a24.027,24.027,0,0,0,24-24V112a24.027,24.027,0,0,0-24-24H392V80a24,24,0,0,0-48,0v8H168V80a24,24,0,0,0-48,0v8H40a24.027,24.027,0,0,0-24,24V432A24.027,24.027,0,0,0,40,456Zm439.992-24a8.009,8.009,0,0,1-8,8H443.313l36.679-36.679ZM432,428.686V392h36.686ZM360,80a8,8,0,0,1,16,0v32a8,8,0,0,1-16,0ZM136,80a8,8,0,0,1,16,0v32a8,8,0,0,1-16,0ZM32,112a8.009,8.009,0,0,1,8-8h80v8a24,24,0,0,0,48,0v-8H344v8a24,24,0,0,0,48,0v-8h79.992a8.009,8.009,0,0,1,8,8v40H32Zm0,56H479.992V376H424a8,8,0,0,0-8,8v56H40a8.009,8.009,0,0,1-8-8Z"/><path d="M400,232h32a8,8,0,0,0,8-8V192a8,8,0,0,0-8-8H400a8,8,0,0,0-8,8v32A8,8,0,0,0,400,232Zm8-32h16v16H408Z"/><path d="M336,232h32a8,8,0,0,0,8-8V192a8,8,0,0,0-8-8H336a8,8,0,0,0-8,8v32A8,8,0,0,0,336,232Zm8-32h16v16H344Z"/><path d="M272,232h32a8,8,0,0,0,8-8V192a8,8,0,0,0-8-8H272a8,8,0,0,0-8,8v32A8,8,0,0,0,272,232Zm8-32h16v16H280Z"/><path d="M138.343,229.657a8,8,0,0,0,11.314,0L160,219.313l10.343,10.344a8,8,0,0,0,11.314-11.314L171.313,208l10.344-10.343a8,8,0,0,0-11.314-11.314L160,196.687l-10.343-10.344a8,8,0,0,0-11.314,11.314L148.687,208l-10.344,10.343A8,8,0,0,0,138.343,229.657Z"/><path d="M202.343,229.657a8,8,0,0,0,11.314,0L224,219.313l10.343,10.344a8,8,0,0,0,11.314-11.314L235.313,208l10.344-10.343a8,8,0,0,0-11.314-11.314L224,196.687l-10.343-10.344a8,8,0,0,0-11.314,11.314L212.687,208l-10.344,10.343A8,8,0,0,0,202.343,229.657Z"/><path d="M400,296h32a8,8,0,0,0,8-8V256a8,8,0,0,0-8-8H400a8,8,0,0,0-8,8v32A8,8,0,0,0,400,296Zm8-32h16v16H408Z"/><path d="M272,296h32a8,8,0,0,0,8-8V256a8,8,0,0,0-8-8H272a8,8,0,0,0-8,8v32A8,8,0,0,0,272,296Zm8-32h16v16H280Z"/><path d="M240.008,248h-32a8,8,0,0,0-8,8v32a8,8,0,0,0,8,8h32a8,8,0,0,0,8-8V256A8,8,0,0,0,240.008,248Zm-8,32h-16V264h16Z"/><path d="M144,248a8,8,0,0,0-8,8v32a8,8,0,0,0,8,8h32a8,8,0,0,0,8-8V256a8,8,0,0,0-8-8Zm24,32H152V264h16Z"/><path d="M400,360h32a8,8,0,0,0,8-8V320a8,8,0,0,0-8-8H400a8,8,0,0,0-8,8v32A8,8,0,0,0,400,360Zm8-32h16v16H408Z"/><path d="M368,312H336a8,8,0,0,0-8,8v32a8,8,0,0,0,8,8h32a8,8,0,0,0,8-8V320A8,8,0,0,0,368,312Zm-8,32H344V328h16Z"/><path d="M272,360h32a8,8,0,0,0,8-8V320a8,8,0,0,0-8-8H272a8,8,0,0,0-8,8v32A8,8,0,0,0,272,360Zm8-32h16v16H280Z"/><path d="M240,376H208a8,8,0,0,0-8,8v32a8,8,0,0,0,8,8h32a8,8,0,0,0,8-8V384A8,8,0,0,0,240,376Zm-8,32H216V392h16Z"/><path d="M176,376H144a8,8,0,0,0-8,8v32a8,8,0,0,0,8,8h32a8,8,0,0,0,8-8V384A8,8,0,0,0,176,376Zm-8,32H152V392h16Z"/><path d="M80,424h32a8,8,0,0,0,8-8V384a8,8,0,0,0-8-8H80a8,8,0,0,0-8,8v32A8,8,0,0,0,80,424Zm8-32h16v16H88Z"/><path d="M80,360h32a8,8,0,0,0,8-8V320a8,8,0,0,0-8-8H80a8,8,0,0,0-8,8v32A8,8,0,0,0,80,360Zm8-32h16v16H88Z"/><path d="M80,296h32a8,8,0,0,0,8-8V256a8,8,0,0,0-8-8H80a8,8,0,0,0-8,8v32A8,8,0,0,0,80,296Zm8-32h16v16H88Z"/><path d="M138.343,357.657a8,8,0,0,0,11.314,0L160,347.313l10.343,10.344a8,8,0,1,0,11.314-11.314L171.313,336l10.344-10.343a8,8,0,1,0-11.314-11.314L160,324.687l-10.343-10.344a8,8,0,0,0-11.314,11.314L148.687,336l-10.344,10.343A8,8,0,0,0,138.343,357.657Z"/><path d="M266.343,421.657a8,8,0,0,0,11.314,0L288,411.313l10.343,10.344a8,8,0,0,0,11.314-11.314L299.313,400l10.344-10.343a8,8,0,0,0-11.314-11.314L288,388.687l-10.343-10.344a8,8,0,0,0-11.314,11.314L276.687,400l-10.344,10.343A8,8,0,0,0,266.343,421.657Z"/><path d="M240,312H208a8,8,0,0,0-8,8v32a8,8,0,0,0,8,8h32a8,8,0,0,0,8-8V320A8,8,0,0,0,240,312Zm-8,32H216V328h16Z"/><path d="M330.343,293.657a8,8,0,0,0,11.314,0L352,283.313l10.343,10.344a8,8,0,0,0,11.314-11.314L363.313,272l10.344-10.343a8,8,0,0,0-11.314-11.314L352,260.687l-10.343-10.344a8,8,0,0,0-11.314,11.314L340.687,272l-10.344,10.343A8,8,0,0,0,330.343,293.657Z"/></svg>
