<?xml version="1.0" encoding="iso-8859-1"?>
<!-- Generator: Adobe Illustrator 19.0.0, SVG Export Plug-In . SVG Version: 6.00 Build 0)  -->
<svg version="1.1" id="Capa_1" xmlns="http://www.w3.org/2000/svg" xmlns:xlink="http://www.w3.org/1999/xlink" x="0px" y="0px"
	 viewBox="0 0 512 512" style="enable-background:new 0 0 512 512;" xml:space="preserve">
<g>
	<g>
		<path d="M316,0c-24.507,0-46.305,11.814-60,30.047C242.305,11.814,220.507,0,196,0H0v482h191.677l29.999,30h68.647l30-30H512V0
			H316z M30,30h166c24.813,0,45,20.187,45,45v323.319c-9.372-4.115-19.571-6.319-30-6.319H30V30z M482,452H307.896l-30,30h-43.794
			l-29.999-30H30v-30h181c12.855,0,25.155,5.591,33.747,15.338l11.255,12.77l11.253-12.772C275.842,427.59,288.142,422,301,422h181
			V452z M482,392H301c-10.43,0-20.629,2.203-30,6.318V75c0-24.813,20.187-45,45-45h166V392z"/>
	</g>
</g>
<g>
	<g>
		<path d="M60,60v122h151V60H60z M181,152H90V90h91V152z"/>
	</g>
</g>
<g>
	<g>
		<rect x="60" y="332" width="151" height="30"/>
	</g>
</g>
<g>
	<g>
		<rect x="60" y="272" width="151" height="30"/>
	</g>
</g>
<g>
	<g>
		<rect x="60" y="212" width="151" height="30"/>
	</g>
</g>
<g>
	<g>
		<path d="M301,180v182h151V180H301z M422,332h-91V210h91V332z"/>
	</g>
</g>
<g>
	<g>
		<rect x="301" y="60" width="151" height="30"/>
	</g>
</g>
<g>
	<g>
		<rect x="301" y="120" width="151" height="30"/>
	</g>
</g>
<g>
</g>
<g>
</g>
<g>
</g>
<g>
</g>
<g>
</g>
<g>
</g>
<g>
</g>
<g>
</g>
<g>
</g>
<g>
</g>
<g>
</g>
<g>
</g>
<g>
</g>
<g>
</g>
<g>
</g>
</svg>
